<svg width="61" height="60" viewBox="0 0 61 60" fill="none" xmlns="http://www.w3.org/2000/svg">
<path d="M19.236 2.50777C19.236 2.50777 26.0644 -2.30451 29.1047 5.69336V37.3789C30.2591 38.2335 30.7708 39.4051 29.1047 40.9646V53.816C27.2806 62.8984 12.8155 58.1539 11.4636 50.6982C11.4636 50.6982 6.59722 49.8171 7.07038 44.8693C7.07038 44.8693 2.13621 43.3104 3.28508 36.4648C3.28508 36.4648 -0.973174 32.4659 2.13622 27.7891C2.13622 27.7891 -0.972997 23.5191 3.89217 19.3168C3.89217 19.3168 3.62322 12.4712 7.74501 11.3867C7.74501 11.3867 6.46217 6.16781 13.4905 5.08335C13.4905 5.08335 14.7762 1.96555 19.236 2.50777Z" fill="#FEF4E1"/>
<path d="M32.283 5.69336C32.283 5.69336 35.0544 -2.37228 42.4221 2.64333C42.4221 2.64333 47.4917 2.1011 48.438 5.96447C48.438 5.96447 54.7242 6.71003 54.1144 11.8612C54.1144 11.8612 59.4544 13.6234 57.5617 19.3168C57.5617 19.3168 58.0681 19.9137 58.6015 20.9435C59.4606 22.6018 60.3898 25.3829 59.3882 28.6025C59.3882 28.6025 61.6188 34.9736 57.5617 37.6848C57.5617 37.6848 58.3067 42.6326 54.589 45.8182C54.589 45.8182 53.7779 52.2571 48.3028 52.7316C48.3028 52.7316 39.8665 65.254 32.283 54.9005V33.7466C31.403 32.9295 31.0189 32.0156 30.9312 31.5169V27.9925C30.9852 27.3418 31.8549 26.0495 32.283 25.4847V5.69336Z" fill="#FEF4E1"/>
<path d="M19.236 2.50777C19.236 2.50777 26.0644 -2.30451 29.1047 5.69336V53.816C27.2806 62.8984 12.8155 58.1539 11.4636 50.6982M19.236 2.50777C14.7762 1.96555 13.4905 5.08335 13.4905 5.08335M19.236 2.50777C21.3711 2.45574 24.3574 3.12645 24.3199 4.86337C24.9508 4.99893 26.0233 5.7716 25.2662 7.77784C24.2523 8.59119 24.3199 5.54116 24.2523 8.8623C21.2106 8.18452 21.4809 7.64229 21.4809 7.50673C21.4809 7.37117 22.4949 6.60897 22.2245 6.15116M11.4636 50.6982C11.4636 50.6982 6.59722 49.8171 7.07038 44.8693M11.4636 50.6982C12.144 50.7153 13.6671 50.2885 14.316 48.4449M7.07038 44.8693C7.07038 44.8693 2.13621 43.3104 3.28508 36.4648M7.07038 44.8693C8.2689 45.18 10.9093 45.2051 11.8826 42.8193M3.28508 36.4648C3.28508 36.4648 -0.973174 32.4659 2.13622 27.7891M3.28508 36.4648C3.80767 37.0466 5.29897 38.129 7.08345 37.8037M2.13622 27.7891C2.13622 27.7891 -0.972997 23.5191 3.89217 19.3168C3.89217 19.3168 3.62322 12.4712 7.74501 11.3867C7.74501 11.3867 6.46217 6.16781 13.4905 5.08335M2.13622 27.7891C2.65873 28.5292 4.01469 29.9007 5.25841 29.4669M13.4905 5.08335C14.5864 6.0156 14.9214 5.84344 15.4651 5.88005M42.4221 2.64333C35.0544 -2.37228 32.283 5.69336 32.283 5.69336V25.4847M42.4221 2.64333C42.4221 2.64333 47.4917 2.1011 48.438 5.96447M42.4221 2.64333C41.1174 3.34999 40.3943 4.88001 40.3943 4.88001M48.438 5.96447C48.438 5.96447 54.7242 6.71003 54.1144 11.8612C54.1144 11.8612 59.4544 13.6234 57.5617 19.3168C57.5617 19.3168 58.0681 19.9137 58.6015 20.9435M48.438 5.96447C48.3137 7.30249 48.0814 8.05019 47.4917 8.38936M59.3882 28.6025C59.3882 28.6025 61.6188 34.9736 57.5617 37.6848M59.3882 28.6025C58.1318 27.0379 57.659 26.0327 56.9548 26.0947C57.0449 26.0947 56.8872 26.0947 55.5353 26.0947C54.0788 24.5764 53.5766 24.468 53.5075 24.6035C53.7779 25.3265 54.4268 26.8809 54.8594 27.3147C55.292 27.7485 56.9548 27.3147 56.9548 27.3147L57.5617 28.3314C57.9034 28.9247 53.7232 32.2755 52.9668 31.5169C48.8435 24.1291 49.3167 25.4169 48.5946 25.8235M59.3882 28.6025C60.3898 25.3829 59.4606 22.6018 58.6015 20.9435M57.5617 37.6848C57.5617 37.6848 58.3067 42.6326 54.589 45.8182C54.589 45.8182 53.7779 52.2571 48.3028 52.7316C48.3028 52.7316 39.8665 65.254 32.283 54.9005V25.4847M57.5617 37.6848C56.968 36.7088 57.2928 37.1426 56.6168 36.397M46.1398 8.60782C46.7284 8.63978 47.1649 8.57726 47.4917 8.38936M47.4917 8.38936C45.6034 6.90256 44.4673 6.31083 42.0166 6.37113L38.772 10.0989C38.7781 10.6625 38.8607 11.3983 39.5156 11.7934C39.8495 11.9949 40.0897 11.0752 40.3943 11.319C40.6127 11.4937 40.8814 12.92 41.2054 12.8101C41.4892 12.6678 42.4871 11.9003 42.2193 11.319C41.9516 10.7376 42.0841 9.96339 42.0841 9.96339C42.0841 9.96339 42.6925 9.15005 42.7601 9.01449C42.8277 8.87894 42.8644 9.04564 43.0305 10.1667C43.1965 11.2878 43.7165 11.4469 45.2611 11.0478C45.0179 11.4514 43.3558 12.2114 43.3008 12.2679C42.9333 12.6451 43.1656 13.2845 42.8953 13.5556C42.6249 13.8268 41.0843 13.9719 40.0563 13.5556C39.8374 13.467 39.5156 13.2845 39.5156 13.2845M39.8535 12.4034C38.1578 15.5508 35.5335 15.8601 35.3248 16.0635C35.116 16.2668 36.2925 16.6538 36.4739 17.2835C36.5837 17.6649 36.609 17.7579 36.4739 18.3001C36.3387 18.8424 33.7705 18.538 33.7025 18.9101C33.6101 19.4161 33.6349 20.6498 33.7025 21.2146C33.7701 21.7794 34.8516 21.8246 34.8516 21.8246M34.8516 21.8246C34.8516 21.8246 36.4739 21.8246 36.8794 21.3502C37.285 20.8757 38.0377 18.6062 39.7184 18.7068C41.1052 18.7899 40.935 20.1979 42.4897 20.9435M34.8516 21.8246V22.7735M42.4897 20.9435C41.8138 22.3668 41.1378 21.0791 41.1378 21.0791M42.4897 20.9435C43.774 20.4013 40.5295 18.5035 41.273 17.8935C42.0166 17.2835 43.0981 19.0457 43.5712 19.7235C44.0444 20.4013 44.2915 22.1805 44.9907 21.8924C45.6898 21.6043 45.0688 19.9452 45.8018 20.1302C46.4252 20.2875 45.9041 21.2178 46.3426 21.6891C47.0327 22.4309 48.2352 22.1635 48.8435 22.028M48.8435 22.028C49.4519 21.8924 49.445 22.9691 48.8435 23.9258C48.2421 24.8824 44.8118 23.742 44.5851 23.5869C44.041 25.054 43.1268 24.8018 40.8675 23.248C41.483 21.179 39.3804 21.7568 34.8516 22.7735M48.8435 22.028C48.275 22.5872 48.1153 22.8293 48.1676 23.1124M34.8516 22.7735C33.9282 23.2233 33.3557 23.8985 32.283 25.4847M32.283 25.4847C31.8549 26.0495 30.9852 27.3418 30.9312 27.9925C30.9312 28.5889 30.9312 30.5906 30.9312 31.5169C31.0663 32.2851 31.9045 34.0383 34.1757 34.9059C37.8933 33.8892 38.5017 34.2959 39.1776 35.0414C40.3267 35.2448 40.5295 34.4314 40.3943 37.617C41.8814 40.4637 41.7462 40.5993 41.7462 40.8704C41.7462 41.1415 41.0026 43.5137 41.0702 43.8526C41.1378 44.1915 42.0166 45.5471 42.1517 46.5638C42.2869 47.5804 42.2193 48.7327 42.6249 49.1393C43.0305 49.546 43.0981 50.4271 43.1656 51.1727C45.545 50.6847 45.7793 50.6079 45.599 50.6305C46.275 50.2464 47.708 49.1122 48.0324 47.6482C48.9517 46.8891 49.0463 46.7445 48.9787 46.7671V45.2082C49.7673 44.553 51.331 43.1884 51.2769 42.9715C51.2093 42.7004 51.8853 42.2937 51.2769 40.8704C50.6686 39.447 51.1417 39.1759 51.2769 38.9048C51.4121 38.6337 54.3186 36.1259 55.1298 33.957C55.9409 31.7881 54.6566 32.5336 52.9668 32.6692C51.5154 32.7856 49.5156 27.7748 48.5946 25.8235M35.3416 11.7934C35.3284 12.4779 35.3871 13.391 35.5275 14.6401C35.5275 14.6401 38.2989 14.1657 37.285 13.2845C36.2711 12.4034 36.2711 9.35339 35.7979 9.96339C35.5213 10.32 35.3602 10.8304 35.3416 11.7934ZM35.3416 11.7934C34.4782 11.222 33.9053 12.6745 33.9053 12.6745C33.9053 12.6745 33.3614 13.6824 34.3784 13.759C35.3955 13.8356 36.0007 13.2845 35.7979 12.6745L35.3416 11.7934ZM48.2352 25.1458C48.3211 25.2648 48.4433 25.5029 48.5946 25.8235M58.6015 20.9435C57.4864 19.6498 56.7674 19.0962 55.1974 18.639M34.6488 44.5304C35.5951 44.6886 37.6094 44.6253 38.0961 43.1071M38.0961 49.4782C38.0285 50.8112 38.7856 53.4229 42.3545 53.206M22.2245 6.15116C21.9541 5.69336 20.5346 4.52448 19.8587 4.72781C19.8587 4.38892 19.9263 4.66004 19.5883 3.98225C18.5744 3.98225 16.3303 3.57558 16.2762 4.93115M22.2245 6.15116C20.1156 6.42228 19.5883 6.80635 19.5883 6.9645C19.9488 7.2808 20.3589 8.00829 19.1152 8.38785C18.3716 7.84562 16.5466 8.25229 16.2762 10.4212C16.1833 11.1668 17.3577 11.5328 17.8985 12.1834C17.8083 13.2227 17.9255 14.7048 19.1152 12.319C20.6698 11.3023 19.7235 10.0145 20.6698 9.26897C21.6161 8.52341 22.6976 8.99786 23.306 10.8957C24.3199 8.99786 24.9282 10.7601 24.8606 11.709C24.8066 12.4681 25.6042 12.9742 26.0097 13.1323L24.8606 14.5611M16.2762 4.93115C16.7391 5.30361 16.341 5.93902 15.4651 5.88005M16.2762 4.93115C16.7249 5.32845 16.9974 5.42862 17.5605 5.13449C17.4561 5.58364 17.3315 5.81389 16.8846 6.15116C16.4528 5.78996 16.2762 5.88005 15.4651 5.88005M24.8606 14.5611L24.3199 15.2335C25.0011 15.9306 25.4658 16.0074 26.4153 15.7079C26.2213 14.5747 25.469 13.6746 24.9958 13.6746C24.5227 13.6746 24.8606 14.5611 24.8606 14.5611ZM24.8606 14.5611C24.3035 14.3842 23.2784 14.211 22.5149 14.4879M21.7513 15.0979C21.9259 14.7956 22.1978 14.6029 22.5149 14.4879M22.5149 14.4879L22.5625 15.979C23.5088 16.0694 24.739 16.4806 22.0893 17.4024C21.143 17.9446 22.968 15.3013 19.4531 18.2835C18.1553 18.9342 17.6506 19.8198 17.5605 20.1813C17.538 20.4072 17.1009 21.1438 15.5327 22.2824C16.0058 24.7225 14.3836 25.5358 14.316 23.2313C13.3697 22.3502 12.5586 22.8924 12.3558 23.2313C11.5897 22.8473 9.90887 22.5535 9.31405 24.4513C9.31405 26.1322 9.31405 26.4621 9.31405 26.4169C9.29152 27.2303 9.82776 28.3689 12.153 26.4169C12.8965 26.078 12.4459 27.7951 11.8826 28.9925H13.5725C13.7752 28.9925 13.7077 30.9581 13.6401 31.5003M13.6401 31.5003C13.586 31.9341 14.3385 32.2685 14.7216 32.3814M13.6401 31.5003L15.7355 31.907M14.7216 32.3814C13.1128 31.907 12.5586 31.907 12.2882 30.2803C12.2882 30.2803 11.2887 30.1187 10.8011 29.7381C10.3845 29.4129 9.98999 28.6536 9.98999 28.6536C5.52879 28.7892 6.20473 24.4513 5.9468 24.3158M14.7216 32.3814L15.3975 32.0651M15.7355 31.907L17.1549 30.7547C17.3803 30.6192 17.8579 30.565 17.9661 31.4325C18.8448 30.7547 19.1152 30.9581 19.3179 31.0936C19.4802 31.2021 20.6022 31.3647 21.143 31.4325L22.6976 33.0592C23.5989 33.1044 25.3338 33.6828 25.0634 35.6348C26.6857 36.177 32.8367 37.8037 28.8487 41.1926C28.8487 45.3135 27.2264 45.3949 26.3477 45.5304C25.6042 45.8693 25.9962 47.2113 25.4014 47.9705L24.0495 49.6649C23.306 49.8005 23.7791 50.6982 23.1708 51.0883C22.5625 51.4783 22.1828 50.8642 22.0217 51.2916C21.8881 51.6461 22.6009 51.8361 22.4273 52.1727C22.2739 52.4701 21.7815 52.153 21.6161 52.4438C21.3912 52.8395 22.3432 52.9402 22.2921 53.3927C22.2344 53.9034 21.2159 53.6244 21.2106 54.1383C21.2052 54.6559 22.2724 54.3832 22.2921 54.9005C22.3097 55.3637 20.6924 55.2002 21.4809 55.765C22.2695 56.3298 23.3195 57.3239 21.2106 56.7817C18.9935 55.2767 18.8898 53.9179 19.1828 53.1894C19.4757 52.4609 18.8174 51.6659 18.5068 50.8849C18.5068 50.8849 18.6195 44.4234 18.5068 43.9715C18.3942 43.5197 17.6011 42.1957 16.141 41.5993C15.9788 40.0811 14.8567 38.6622 14.316 38.1426V35.4315C14.5413 35.0474 15.073 34.2521 15.3975 34.1437C15.7219 34.0352 15.5327 32.7128 15.3975 32.0651M15.7355 31.907L15.3975 32.0651M6.06954 14.6912C5.50626 15.6176 4.42025 17.7819 4.58248 19.0291C4.58248 19.4227 4.55081 19.9472 4.52005 20.5202M4.52005 20.5202C4.42368 22.3151 4.33613 24.5847 5.25841 24.7902C5.91397 24.9363 6.02008 24.7676 5.9468 24.3158M4.52005 20.5202C5.05563 21.808 5.2138 21.894 5.52879 22.8247C5.72266 23.3975 5.88407 23.9291 5.9468 24.3158M13.8428 26.1458C14.5638 26.0554 16.141 26.1865 16.6818 27.4336M19.3855 28.0436C19.0701 27.6595 17.9661 27.0947 17.5605 27.7725C17.3577 28.1114 18.3491 28.2469 19.3179 28.1114M24.0495 55.765C24.2974 55.6972 24.8606 55.3719 25.131 54.6128M6.5427 33.6692C6.63282 34.9796 7.43494 37.5732 9.92239 37.4648M47.4241 17.0801C46.8833 17.8709 46.0857 19.4795 47.2213 19.5879C48.3028 19.3168 49.2491 19.475 49.5871 19.5879C50.601 19.7235 52.034 19.6015 49.6547 18.029C49.7223 16.809 49.2491 17.0801 48.8435 17.2835C49.4686 18.3674 48.1406 17.9517 47.4241 17.0801ZM52.3584 43.8526C52.9217 43.7397 54.1023 43.2019 54.3186 41.9548C54.3186 45.2082 54.1835 46.4282 52.088 47.6482C52.5206 46.1842 52.4485 44.5078 52.3584 43.8526Z" stroke="#01386F" stroke-linecap="round" stroke-linejoin="round"/>
</svg>
