<svg width="1004" height="1003" viewBox="0 0 1004 1003" fill="none" xmlns="http://www.w3.org/2000/svg">
<circle cx="502" cy="501.5" r="501.5" fill="url(#paint0_linear_248_4)"/>
<path d="M373.014 188.209C373.014 188.209 450.904 133.283 485.584 224.569V586.222C498.752 595.976 504.589 609.348 485.584 627.148V773.831C464.777 877.495 299.776 823.342 284.356 738.245C284.356 738.245 228.846 728.189 234.244 671.715C234.244 671.715 177.96 653.922 191.065 575.788C191.065 575.788 142.492 530.145 177.961 476.766C177.961 476.766 142.494 428.028 197.99 380.065C197.99 380.065 194.923 301.93 241.939 289.552C241.939 289.552 227.306 229.984 307.476 217.607C307.476 217.607 322.142 182.021 373.014 188.209Z" fill="#FEF4E1"/>
<path d="M521.839 224.569C521.839 224.569 553.451 132.509 637.493 189.757C637.493 189.757 695.32 183.568 706.114 227.663C706.114 227.663 777.82 236.173 770.865 294.967C770.865 294.967 831.776 315.081 810.187 380.065C810.187 380.065 815.963 386.877 822.048 398.631C831.847 417.559 842.447 449.301 831.021 486.049C831.021 486.049 856.465 558.768 810.187 589.712C810.187 589.712 818.685 646.186 776.278 682.546C776.278 682.546 767.026 756.038 704.572 761.454C704.572 761.454 608.341 904.381 521.839 786.209L518.61 541.526C510.841 533.111 507.305 524.354 506.418 519.314V479.086L518.61 446.595L521.119 444.506L521.839 224.569Z" fill="#FEF4E1"/>
<path d="M373.014 188.209C373.014 188.209 450.904 133.283 485.584 224.569V586.222M373.014 188.209C322.142 182.021 307.476 217.607 307.476 217.607M373.014 188.209C397.369 187.616 431.433 195.271 431.005 215.096C438.201 216.643 450.435 225.462 441.799 248.361C430.234 257.644 431.005 222.832 430.234 260.739C395.538 253.003 398.622 246.814 398.622 245.266C398.622 243.719 410.187 235.02 407.103 229.794M284.356 738.245C299.776 823.342 464.777 877.495 485.584 773.831V627.148M284.356 738.245C284.356 738.245 228.846 728.189 234.244 671.715M284.356 738.245C292.117 738.44 309.491 733.569 316.893 712.526M234.244 671.715C234.244 671.715 177.96 653.922 191.065 575.788M234.244 671.715C247.915 675.262 278.033 675.548 289.136 648.317M191.065 575.788C191.065 575.788 142.492 530.145 177.961 476.766M191.065 575.788C197.027 582.429 214.037 594.783 234.393 591.07M177.961 476.766C177.961 476.766 142.494 428.028 197.99 380.065C197.99 380.065 194.923 301.93 241.939 289.552C241.939 289.552 227.306 229.984 307.476 217.607M177.961 476.766C183.921 485.212 199.388 500.867 213.575 495.916M307.476 217.607C319.977 228.247 323.798 226.282 330 226.7M637.493 189.757C553.451 132.509 521.839 224.569 521.839 224.569L521.119 444.506M637.493 189.757C637.493 189.757 695.32 183.568 706.114 227.663M637.493 189.757C622.611 197.822 614.362 215.286 614.362 215.286M706.114 227.663C706.114 227.663 777.82 236.173 770.865 294.967C770.865 294.967 831.776 315.081 810.187 380.065C810.187 380.065 815.963 386.877 822.048 398.631M706.114 227.663C704.696 242.935 702.048 251.469 695.32 255.341M831.021 486.049C831.021 486.049 856.465 558.768 810.187 589.712M831.021 486.049C816.69 468.191 811.297 456.718 803.264 457.425C804.292 457.425 802.493 457.425 787.072 457.425C770.458 440.096 764.729 438.859 763.942 440.406C767.026 448.658 774.428 466.399 779.362 471.35C784.297 476.301 803.264 471.35 803.264 471.35L810.187 482.954C814.084 489.727 766.402 527.972 757.773 519.314C710.741 434.991 710.741 450.638 706.822 456.345C717.328 478.616 741.218 533.794 757.773 532.465C777.049 530.918 791.699 522.408 782.446 547.164C773.194 571.919 740.04 600.543 738.498 603.637C736.956 606.732 731.558 609.826 738.498 626.072C745.437 642.318 737.727 646.96 738.498 650.054C739.114 652.53 721.278 668.105 712.283 675.583V693.376C713.054 693.118 711.974 694.769 701.488 703.433C697.787 720.143 681.442 733.088 673.731 737.472C675.787 737.214 673.114 738.091 645.974 743.661C645.203 735.151 644.432 725.094 639.806 720.452C635.18 715.811 635.951 702.659 634.409 691.055C632.867 679.451 622.843 663.979 622.072 660.111C621.301 656.243 629.783 629.167 629.783 626.072C629.783 622.978 631.325 621.43 614.362 588.939C615.904 552.579 613.591 561.863 600.484 559.542C592.773 551.032 585.834 546.39 543.427 557.994M831.021 486.049C842.447 449.301 831.847 417.559 822.048 398.631M810.187 589.712C810.187 589.712 818.685 646.186 776.278 682.545C776.278 682.545 767.026 756.038 704.572 761.454C704.572 761.454 608.341 904.381 521.839 786.209L518.61 541.526C526.312 550.245 543.427 557.994 543.427 557.994M810.187 589.712C803.415 578.572 807.119 583.524 799.409 575.014M679.899 257.834C686.614 258.199 691.593 257.485 695.32 255.341M695.32 255.341C673.782 238.371 660.822 231.617 632.867 232.305L595.857 274.854C595.927 281.286 596.869 289.683 604.339 294.194C608.148 296.494 610.887 285.996 614.362 288.778C616.853 290.773 619.918 307.052 623.614 305.798C626.851 304.174 638.234 295.414 635.18 288.778C632.125 282.143 633.638 273.306 633.638 273.306C633.638 273.306 640.577 264.023 641.348 262.476C642.119 260.929 642.538 262.831 644.432 275.627C646.326 288.423 652.258 290.238 669.876 285.684C667.102 290.29 648.144 298.964 647.516 299.609C643.324 303.915 645.974 311.213 642.89 314.308C639.806 317.402 622.233 319.059 610.507 314.308C608.01 313.296 604.339 311.213 604.339 311.213M608.194 301.156C588.85 337.08 558.916 340.61 556.535 342.931C554.154 345.252 567.574 349.67 569.642 356.856C570.896 361.21 571.184 362.271 569.642 368.46C568.1 374.649 538.805 371.175 538.03 375.423C536.976 381.198 537.259 395.279 538.03 401.725C538.801 408.172 551.138 408.688 551.138 408.688M551.138 408.688C551.138 408.688 569.642 408.688 574.269 403.273C578.895 397.857 587.481 371.953 606.652 373.102C622.471 374.05 620.53 390.121 638.264 398.631M551.138 408.688V419.518M638.264 398.631C630.554 414.877 622.843 400.178 622.843 400.178M638.264 398.631C652.913 392.442 615.904 370.781 624.385 363.819C632.867 356.856 645.203 376.97 650.6 384.706C655.998 392.442 658.817 412.75 666.792 409.462C674.767 406.173 667.683 387.236 676.044 389.348C683.155 391.143 677.211 401.761 682.213 407.141C690.085 415.608 703.801 412.556 710.741 411.009M710.741 411.009C717.68 409.462 717.601 421.751 710.741 432.67C703.88 443.589 664.752 430.572 662.166 428.802C655.959 445.547 645.531 442.669 619.759 424.934C626.781 401.319 602.797 407.914 551.138 419.518M710.741 411.009C704.256 417.392 702.434 420.155 703.03 423.387M551.138 419.518L518.61 446.595L506.418 479.086C506.418 485.894 506.418 508.741 506.418 519.314C507.96 528.082 517.521 548.092 543.427 557.994M556.727 294.194C556.576 302.006 557.246 312.429 558.848 326.685C558.848 326.685 590.46 321.27 578.895 311.213C567.329 301.156 567.329 266.344 561.932 273.306C558.777 277.376 556.94 283.202 556.727 294.194ZM556.727 294.194C546.878 287.671 540.343 304.251 540.343 304.251C540.343 304.251 534.139 315.754 545.741 316.628C557.342 317.502 564.245 311.213 561.932 304.251L556.727 294.194ZM822.048 398.631C809.328 383.865 801.126 377.546 783.217 372.328M548.825 667.847C559.619 669.652 582.596 668.93 588.147 651.601M588.147 724.32C587.376 739.535 596.012 769.345 636.722 766.869M407.103 229.794C404.019 224.569 387.827 211.228 380.117 213.549C380.117 209.68 380.888 212.775 377.033 205.039C365.467 205.039 339.869 200.397 339.252 215.869M407.103 229.794C383.047 232.889 377.033 237.273 377.033 239.078C381.145 242.688 385.823 250.991 371.636 255.323C363.154 249.135 342.337 253.776 339.252 278.532C338.192 287.041 351.589 291.219 357.757 298.646C356.729 310.508 358.066 327.424 371.636 300.193C389.369 288.589 378.575 273.89 389.369 265.38C400.164 256.871 412.5 262.286 419.439 283.947C431.005 262.286 437.944 282.4 437.173 293.23C436.556 301.895 445.654 307.671 450.281 309.476L437.173 325.784M339.252 215.869C344.533 220.121 339.992 227.373 330 226.7M339.252 215.869C344.371 220.404 347.478 221.547 353.902 218.19C352.711 223.317 351.29 225.945 346.192 229.794C341.267 225.672 339.252 226.7 330 226.7M437.173 325.784L431.005 333.458C438.776 341.415 444.076 342.291 454.907 338.873C452.694 325.939 444.112 315.665 438.715 315.665C433.318 315.665 437.173 325.784 437.173 325.784ZM437.173 325.784C430.817 323.765 419.124 321.787 410.416 324.948M401.706 331.911C403.697 328.46 406.799 326.261 410.416 324.948M410.416 324.948L410.958 341.968C421.753 342.999 435.785 347.692 405.561 358.213C394.767 364.402 415.584 334.232 375.491 368.27C360.687 375.697 354.93 385.805 353.902 389.931C353.645 392.51 348.659 400.917 330.771 413.913C336.168 441.763 317.664 451.047 316.893 424.744C306.098 414.687 296.846 420.876 294.533 424.744C285.794 420.36 266.622 417.008 259.837 438.669C259.837 457.854 259.837 461.619 259.837 461.103C259.579 470.387 265.696 483.383 292.22 461.103C300.701 457.235 295.561 476.834 289.136 490.501H308.411C310.724 490.501 309.953 512.935 309.182 519.124M309.182 519.124C308.566 524.075 317.15 527.892 321.519 529.181M309.182 519.124L333.084 523.766M321.519 529.181C303.168 523.766 296.846 523.766 293.762 505.199C293.762 505.199 282.361 503.354 276.799 499.01C272.047 495.299 267.547 486.633 267.547 486.633C216.659 488.18 224.369 438.669 221.427 437.122M321.519 529.181L329.229 525.571M333.084 523.766L349.276 510.614C351.846 509.067 357.295 508.448 358.528 518.351C368.552 510.614 371.636 512.935 373.949 514.482C375.799 515.72 388.598 517.577 394.767 518.351L412.5 536.917C422.781 537.433 442.57 544.034 439.486 566.314C457.991 572.503 528.154 591.07 482.664 629.75C482.664 676.786 464.159 677.714 454.136 679.261C445.654 683.129 450.126 698.447 443.341 707.111L427.921 726.451C419.439 727.999 424.837 738.245 417.897 742.697C410.958 747.149 406.628 740.14 404.79 745.018C403.265 749.064 411.397 751.233 409.416 755.075C407.666 758.469 402.05 754.85 400.164 758.169C397.598 762.685 408.457 763.835 407.874 769C407.216 774.829 395.598 771.644 395.538 777.51C395.477 783.418 407.65 780.305 407.874 786.209C408.075 791.496 389.626 789.629 398.622 796.076C407.617 802.523 419.594 813.869 395.538 807.68C370.248 790.503 369.066 774.994 372.407 766.679C375.748 758.364 368.24 749.29 364.696 740.376C364.696 740.376 365.981 666.626 364.696 661.468C363.411 656.311 354.365 641.2 337.71 634.392C335.86 617.063 323.061 600.869 316.893 594.938V563.993C319.463 559.61 325.528 550.533 329.229 549.295C332.93 548.057 330.771 532.963 329.229 525.571M333.084 523.766L329.229 525.571M222.827 327.269C216.402 337.842 204.014 362.546 205.865 376.78C205.865 381.273 205.503 387.26 205.152 393.799M205.152 393.799C204.053 414.286 203.054 440.191 213.575 442.537C221.053 444.204 222.263 442.278 221.427 437.122M205.152 393.799C211.262 408.498 213.066 409.479 216.659 420.102C218.87 426.64 220.711 432.708 221.427 437.122M311.495 458.009C319.72 456.978 337.71 458.473 343.879 472.708M374.72 479.67C371.122 475.286 358.528 468.84 353.902 476.576C351.589 480.444 362.897 481.991 373.949 480.444M427.921 796.076C430.748 795.303 437.173 791.589 440.257 782.925M228.224 543.88C229.252 558.836 238.402 588.44 266.776 587.202M694.549 354.535C688.381 363.561 679.283 381.921 692.236 383.159C704.572 380.064 715.367 381.869 719.222 383.159C730.787 384.706 747.133 383.314 719.993 365.366C720.764 351.441 715.367 354.535 710.741 356.856C717.871 369.228 702.723 364.483 694.549 354.535ZM750.834 660.111C757.259 658.822 770.727 652.684 773.194 638.45C773.194 675.583 771.652 689.508 747.75 703.433C752.685 686.723 751.862 667.589 750.834 660.111Z" stroke="#96A264" stroke-width="10" stroke-linecap="round" stroke-linejoin="round"/>
<path d="M75.4454 528.636C57.4457 531.136 59.4457 549.636 72.9454 551.136L72.9447 561.136C51.9471 561.136 49.9452 537.136 55.9463 527.636C65.1063 513.136 98.9457 514.136 103.446 532.136C107.446 548.136 96.2801 557.136 91.4468 558.636L88.4456 548.136C96.9457 543.636 98.9457 525.372 75.4454 528.636Z" fill="#B0721F"/>
<path d="M109.946 570.136L106.946 559.136C99.2796 561.303 81.3463 566.736 70.9463 571.136C60.5463 575.536 61.9463 588.303 63.9463 594.136C67.5463 607.336 78.7796 608.303 83.9463 607.136L117.446 598.136L114.946 587.636C114.946 587.636 88.4463 596.636 79.4463 596.636C70.4463 596.636 70.4463 580.878 76.9463 579.136L109.946 570.136Z" fill="#B0721F"/>
<path d="M119.946 604.136L73.4463 621.136L76.9463 631.636L124.446 614.136L119.946 604.136Z" fill="#B0721F"/>
<path d="M125.446 620.636L80.4463 641.136L91.9463 665.636C115.446 680.636 139.446 658.636 135.946 643.636L125.446 620.636Z" fill="#B0721F"/>
<path d="M152.446 674.136L100.446 682.636L105.446 691.636L116.946 689.636L127.446 706.136L119.446 715.636L125.946 725.136L157.946 682.636L152.446 674.136Z" fill="#B0721F"/>
<path d="M167.946 700.636L128.946 731.636L146.446 751.136C172.946 764.136 189.946 732.136 183.946 720.636L167.946 700.636Z" fill="#B0721F"/>
<path d="M217.946 760.136C212.425 746.316 195.946 738.636 181.946 747.636C178.898 749.595 158.446 765.565 174.446 786.136C180.046 793.336 191.446 794.803 196.446 794.636C211.446 792.636 222.141 770.636 217.946 760.136Z" fill="#B0721F"/>
<path d="M273.446 804.636L244.446 782.636L213.446 821.136L244.446 845.636L250.446 837.636L228.446 821.136L235.946 811.636L254.946 826.636L260.946 819.136L241.946 803.636L247.446 796.136L267.946 812.136L273.446 804.636Z" fill="#B0721F"/>
<path d="M260.946 855.636L252.446 849.636L277.446 807.636L290.446 815.136L281.446 848.136L304.946 823.636L318.946 831.636L293.946 874.136L285.446 869.136L304.446 836.636L276.946 865.136L268.446 859.636L279.946 822.636L260.946 855.636Z" fill="#B0721F"/>
<path d="M308.946 873.136C306.546 852.336 320.613 842.136 327.946 839.636C346.746 837.236 355.446 849.303 357.446 855.636C360.446 882.636 340.446 891.136 330.446 890.136C326.964 889.788 312.946 887.136 308.946 873.136Z" fill="#B0721F"/>
<path d="M403.946 876.636H393.446C394.613 872.303 393.846 864.136 381.446 866.136C369.046 868.136 368.28 883.303 369.446 890.636C378.246 903.436 386.78 895.969 389.946 890.636L398.946 897.136C381.746 916.736 365.946 901.636 359.946 893.636C355.946 884.636 357.146 859.936 377.946 857.136C398.746 854.336 403.946 868.969 403.946 876.636Z" fill="#B0721F"/>
<path d="M423.446 866.636L413.446 864.636L403.446 912.636L413.446 914.636L423.446 866.636Z" fill="#B0721F"/>
<path d="M423.446 903.636C421.046 882.836 435.113 872.636 442.446 870.136C461.246 867.736 469.946 879.803 471.946 886.136C474.946 913.136 454.946 921.636 444.946 920.636C441.464 920.288 427.446 917.636 423.446 903.636Z" fill="#B0721F"/>
<path d="M687.946 843.636C685.446 827.636 699.113 818.636 706.446 816.136C726.446 812.136 734.828 829.815 736.946 839.136C739.446 850.136 731.446 868.636 708.946 866.636C701.476 865.972 690.2 858.057 687.946 843.636Z" fill="#B0721F"/>
<path d="M477.946 873.636V923.136H487.946V893.136L505.946 923.136L517.946 923.636V874.136H507.946V905.636L488.446 873.636H477.946Z" fill="#B0721F"/>
<path d="M537.946 872.636L523.946 922.136H534.946L537.446 911.136L556.946 909.136L561.946 918.636L573.446 917.636L548.446 871.136L537.946 872.636Z" fill="#B0721F"/>
<path d="M579.946 916.636L569.446 868.636L578.946 866.136L588.446 905.636L611.446 900.136L613.946 909.136L579.946 916.636Z" fill="#B0721F"/>
<path d="M639.446 849.636L659.946 894.636L668.946 890.136L655.946 862.136L685.446 884.136L696.446 878.136L674.946 833.636L666.946 837.136L679.946 867.136L649.446 844.636L639.446 849.636Z" fill="#B0721F"/>
<path d="M779.946 761.136L752.446 786.136L785.946 823.136L813.946 798.136L807.446 791.136L787.446 809.136L779.946 800.136L797.446 783.636L791.446 776.636L772.946 792.136L766.946 785.136L785.946 768.136L779.946 761.136Z" fill="#B0721F"/>
<path d="M781.946 759.136L789.946 751.636L806.685 754.378L802.446 736.636L810.259 729.8C809.838 727.94 810.022 728.311 810.446 729.636L810.259 729.8C810.873 732.51 812.773 739.954 817.093 756.082L847.946 761.136L840.446 770.136L819.83 766.259C821.318 771.774 823.015 778.036 824.946 785.136L815.946 793.136L809.04 764.23L781.946 759.136Z" fill="#B0721F"/>
<path d="M834.446 698.136L811.946 727.636L815.946 734.636L826.446 724.136L858.446 747.636L864.946 740.136L832.946 714.136L840.446 703.636L834.446 698.136Z" fill="#B0721F"/>
<path d="M854.446 664.136L835.446 695.136L877.446 722.136L896.446 689.636L888.946 684.136L874.946 707.636L865.446 701.136L876.946 679.636L869.446 675.136L856.946 696.136L849.946 691.636L862.446 669.636L854.446 664.136Z" fill="#B0721F"/>
<path d="M870.446 632.136L856.946 659.136L901.446 681.136L905.946 671.136L887.446 661.636C889.046 653.636 905.78 651.969 913.946 652.136L919.946 640.636C901.546 640.236 894.946 644.469 893.946 646.636V637.136C884.346 623.136 874.28 627.969 870.446 632.136Z" fill="#B0721F"/>
<path d="M879.446 608.136L875.946 617.636L921.946 634.636L924.946 625.136L902.196 616.636L879.446 608.136Z" fill="#B0721F"/>
<path d="M916.946 565.136C901.346 561.136 892.78 569.136 890.446 573.636C890.446 573.636 883.946 585.136 886.946 596.136C889.946 607.136 909.946 614.251 918.446 611.636C934.046 606.836 936.946 590.969 936.446 583.636C936.446 579.136 932.546 569.136 916.946 565.136Z" fill="#B0721F"/>
<path d="M898.946 525.136L894.946 554.136L943.446 562.636L944.946 552.136L924.946 549.136C924.546 539.136 940.446 532.636 948.446 530.636L950.446 518.636C937.246 522.636 928.946 528.969 926.446 531.636L924.946 524.136C912.946 508.936 902.613 518.469 898.946 525.136Z" fill="#B0721F"/>
<path d="M121.446 633.636L92.9463 647.136L98.4463 657.636C105.946 667.136 130.446 653.136 126.446 643.636L121.446 633.636Z" fill="#F4FFE1"/>
<path d="M131.946 698.636L126.446 688.136L143.946 685.136L131.946 698.636Z" fill="#F4FFE1"/>
<path d="M167.446 715.136L142.446 734.136L152.446 744.636C160.946 747.636 178.446 733.136 174.946 723.636L167.446 715.136Z" fill="#F4FFE1"/>
<path d="M198.446 782.636C186.046 787.436 180.28 779.969 178.946 775.636C177.999 766.864 180.089 765.245 182.446 760.636C187.446 755.636 199.246 748.236 206.446 758.636C213.646 769.036 204.113 778.969 198.446 782.636Z" fill="#F4FFE1"/>
<path d="M343.446 875.136C332.85 887.659 322.946 877.969 319.946 872.136C316.446 861.636 327.446 850.136 330.446 849.136C344.946 844.303 354.446 862.136 343.446 875.136Z" fill="#F4FFE1"/>
<path d="M457.446 882.636C450.213 877.375 443.946 879.194 440.446 882.136C434.419 887.202 435.521 888.779 434.946 900.636C437.446 914.136 452.946 911.136 456.946 907.136C462.446 900.636 462.946 886.636 457.446 882.636Z" fill="#F4FFE1"/>
<path d="M540.946 901.136L544.946 885.136L552.946 900.136L540.946 901.136Z" fill="#F4FFE1"/>
<path d="M701.946 849.636C695.546 840.436 700.613 832.136 703.946 829.136C706.446 827.136 713.446 825.136 721.446 833.136C729.446 841.136 726.446 849.469 723.946 852.636C719.28 855.469 708.346 858.836 701.946 849.636Z" fill="#F4FFE1"/>
<path d="M879.946 658.636L868.446 653.136L875.446 640.636C883.846 635.436 885.613 642.136 885.446 646.136L879.946 658.636Z" fill="#F4FFE1"/>
<path d="M907.446 601.136C894.246 596.736 894.28 587.303 895.946 583.136C896.78 579.969 901.546 573.936 913.946 575.136C926.346 576.336 928.446 584.969 927.946 589.136C926.613 594.969 920.646 605.536 907.446 601.136Z" fill="#F4FFE1"/>
<path d="M916.946 547.136L905.446 545.636L907.446 531.136C910.646 525.536 916.446 528.803 918.946 531.136L916.946 547.136Z" fill="#F4FFE1"/>
<path d="M175 257L202.5 225L203 224L194 215L176 235L166 225L181.5 208.5L171 198.5L154 215L145.5 206L162.5 187.5L153 178L122 209.5L175 257Z" fill="#B0721F"/>
<path d="M180 152L165 164L203 178L205 219L207 222L222 209.5L219 183L242 193.5L257.5 180L217.5 164.5L212.5 125.5L198 137L202.5 162L180 152Z" fill="#B0721F"/>
<path d="M259 97L226.5 116L262.5 176L276 167.5L262.5 146.5L284.5 130C293.3 101.6 271.167 96.1667 259 97Z" fill="#B0721F"/>
<path d="M312.5 69L298.5 76L303 151.5L318 144.5V130L340.5 120.5L351.5 130.5L366 124L312.5 69Z" fill="#B0721F"/>
<path d="M392 44L340 59.5L344 73.5L362 67.5L379 121.5L394.5 118L378.5 64.5L397 58.5L392 44Z" fill="#B0721F"/>
<path d="M444 37L408.5 40L417.5 111.5L433 109.5L430.5 85L438.5 84L454.5 106L473 105L452 78.5C458.8 75.7 462.5 68 463.5 64.5C463.9 45.3 450.667 38.1667 444 37Z" fill="#B0721F"/>
<path d="M497.5 35H481.5V104.36H497.5V35Z" fill="#B0721F"/>
<path d="M558 38L542.5 35L506 103.5H521.5L530 89.5L555.5 94L557.5 108.5L574.5 111.5L558 38Z" fill="#B0721F"/>
<path d="M622.5 51.5L605.5 45.5L580.5 112.5L595 118.5L610 74L611.5 123L623 127.5L652.5 87L638.5 132L652.5 138L673 68L655.5 60.5L623 104L622.5 51.5Z" fill="#B0721F"/>
<path d="M733.5 98L695 77L663 140.5L702.5 161L709 148.5L683.5 135.5L690.5 121.5L710.5 132.5L716.5 120.5L697 109.5L703.5 97.5L727 109.5L733.5 98Z" fill="#B0721F"/>
<path d="M751 108L710.5 165.5L722 174L747.5 135.5L743 188.5L756 198.5L797.5 139.5L784.5 129L759.5 168L762.5 115.5L751 108Z" fill="#B0721F"/>
<path d="M808.5 149L798.5 160L812 172L773 212.5L784.5 224L822.5 184L835.5 197L847 186.5L808.5 149Z" fill="#B0721F"/>
<path d="M854 196.5L802 241.5L829 275.5L840 265.5L822 244L833 234.5L848.5 252L858.5 243L844.5 225.5L854 218L871 238L882.5 228L854 196.5Z" fill="#B0721F"/>
<path d="M257.5 134.5L248 116.5L260 108C272 108.4 273.667 118.5 273 123.5L257.5 134.5Z" fill="#F8FFCD"/>
<path d="M315.5 113L313.5 86L331 107L315.5 113Z" fill="#F8FFCD"/>
<path d="M428.5 69.5L426.5 50L439 48.5C452.6 51.3 448 66.5 442.5 68L428.5 69.5Z" fill="#F8FFCD"/>
<path d="M554 76.5L535.5 74.5L548 53.5L554 76.5Z" fill="#F8FFCD"/>
<defs>
<linearGradient id="paint0_linear_248_4" x1="502" y1="1003" x2="502" y2="1.24127e-05" gradientUnits="userSpaceOnUse">
<stop offset="0.8" stop-color="#F4FFE1"/>
<stop offset="1" stop-color="#F9FFC7"/>
</linearGradient>
</defs>
</svg>
