<svg width="106" height="106" viewBox="0 0 106 106" fill="none" xmlns="http://www.w3.org/2000/svg">
<path d="M87.8964 37C101.896 66 80.8964 101.5 47.3936 101.5C-6.60352 101.5 -11.6036 13.5 47.3936 13.5C47.3936 13.5 52 12.5 67.3965 16.5M54.8965 33.6079C47.5328 31.6149 38.8595 32.9703 30.8965 39.5C11.3965 62.5 39.3965 95 64.3965 74.5C73.2216 65.1115 74.2196 54.9474 70.7007 47M54.8965 50L74.8965 30.5M54.8965 50C54.8965 50 57.9015 58.1624 54.8965 61.5C51.9955 64.722 47.1577 65.8276 43.5 63.5M54.8965 50C54.8965 50 49.1016 48.5577 45.8965 50C43.1265 51.2465 40.9884 52.5207 40.3965 55.5C39.7666 58.6702 40.3965 60.5 43.5 63.5M54.8965 50C54.8965 50 47.7958 58.4232 43.5 63.5M74.8965 30.5L85.8965 5M74.8965 30.5L100.896 18" stroke="black" stroke-width="9" stroke-linecap="round"/>
</svg>
