<svg width="158" height="142" viewBox="0 0 158 142" fill="none" xmlns="http://www.w3.org/2000/svg">
<path d="M98.6965 104.804H117.191M123.196 81.3054C129.8 80.48 134.442 80.9082 137.696 82.0141M137.696 82.0141C144.299 84.2576 145.196 89.29 145.196 92.3038C144.796 101.504 137.03 104.47 133.196 104.804H117.191M137.696 82.0141C153.646 83.1272 162.088 64.6995 147.196 60.8784M138.196 60.3055C141.836 60.0298 144.815 60.2673 147.196 60.8784M147.196 60.8784C155.453 55.7097 149.797 37.8487 140.196 39.0095M131.696 44.8052C134.688 41.0447 137.588 39.3249 140.196 39.0095M140.196 39.0095C141.295 27.8776 131.458 19.8573 124.696 23.5805M119.196 32.8052C120.161 27.8767 122.223 24.9426 124.696 23.5805M124.696 23.5805C125.075 16.5557 111.974 6.82079 105.595 13.8051M102.196 26.305C102.196 19.9963 103.551 16.0427 105.595 13.8051M105.595 13.8051C103.597 4.6546 87.97 -1.79716 83.6928 9.87743M82.6965 19.3051C82.4274 15.3371 82.8283 12.237 83.6928 9.87743M83.6928 9.87743C79.3594 4.35334 67.1909 -2.69494 58.873 10.6332M61.1928 17.8051C62.4923 3.92362 37.1488 2.76307 39.8187 16.8051M43.1928 24.3051C41.2861 21.4451 40.2262 18.9481 39.8187 16.8051M39.8187 16.8051C32.5464 15.67 20.3875 16.8299 21.3744 28.3051M23.1909 35.3051C22.1202 32.6285 21.5468 30.3094 21.3744 28.3051M21.3744 28.3051C14.8132 29.6384 3.5909 35.7051 11.1909 49.3051M11.1909 49.3051L18.1913 51.8051M11.1909 49.3051C6.41281 53.4006 -0.13203 61.7904 4.69141 67.7692M9.6913 71.3051C7.37602 70.2921 5.75654 69.0894 4.69141 67.7692M4.69141 67.7692C3.69141 74.6145 4.09141 88.3051 13.6914 88.3051H19.6914M19.6914 80.3051C19.6914 82.8051 19.6914 87.9051 19.6914 88.3051M19.6914 88.3051C25.5391 93.3731 35.6422 96.3133 39.336 89.3051M40.6914 80.8051C40.9117 84.5503 40.3797 87.3248 39.336 89.3051M39.336 89.3051C41.6211 95.3051 52.7914 106.205 71.1914 99.8051M71.1914 99.8051C70.7764 97.0382 69.9551 92.8051 72.6914 89.3051C75.9529 85.1333 80.5936 84.6134 84.1914 83.3051M71.1914 99.8051C73.0247 105.972 80.1914 118.405 94.1914 118.805C106.991 126.805 111.858 133.472 112.691 135.805C118.191 139.805 127.691 142.405 121.691 120.805L117.191 104.804M95.1914 89.3051C100.858 89.6384 112.691 87.9051 114.691 78.3051M94.1914 79.8051C92.0247 74.3051 91.0914 62.5051 104.691 59.3051C110.145 58.6234 112.092 55.274 112.512 51.8051M111.691 44.8052C112.267 46.4609 112.831 49.1675 112.512 51.8051M112.512 51.8051C116.071 50.9717 123.991 51.3051 127.191 59.3051M97.6914 42.8051C94.1914 42.4717 86.7914 43.8051 85.1914 51.8051M71.6914 61.8051C66.5247 61.1384 56.0914 63.0051 55.6914 75.8051M29.6914 64.3051C29.1914 59.1384 30.4914 48.8051 39.6914 48.8051C48.8914 48.8051 48.5247 48.8051 47.1914 48.8051C47.8581 46.6384 50.9914 41.605 58.1914 38.8051C63.0247 40.3051 74.1914 41.2051 80.1914 32.8051" stroke="black" stroke-width="5" stroke-linecap="round"/>
</svg>
