<svg width="136" height="129" viewBox="0 0 136 129" fill="none" xmlns="http://www.w3.org/2000/svg">
<path d="M37 46V43.5H35.6546L34.9135 44.6229L37 46ZM101.5 46L103.606 44.6524L102.868 43.5H101.5V46ZM117.5 71L119.36 72.6705L120.631 71.2549L119.606 69.6524L117.5 71ZM69 125L67.1401 126.671L69 128.741L70.8599 126.671L69 125ZM20.5 71L18.4135 69.6229C17.787 70.5721 17.8801 71.8244 18.6401 72.6705L20.5 71ZM3 69C1.61929 69 0.5 70.1193 0.5 71.5C0.5 72.8807 1.61929 74 3 74V71.5V69ZM12 74C13.3807 74 14.5 72.8807 14.5 71.5C14.5 70.1193 13.3807 69 12 69V71.5V74ZM103.849 36.7255C103.145 37.9133 103.538 39.4468 104.725 40.1507C105.913 40.8546 107.447 40.4623 108.151 39.2745L106 38L103.849 36.7255ZM116.151 25.7745C116.855 24.5867 116.462 23.0532 115.275 22.3493C114.087 21.6454 112.553 22.0377 111.849 23.2255L114 24.5L116.151 25.7745ZM65.5 22C65.5 23.3807 66.6193 24.5 68 24.5C69.3807 24.5 70.5 23.3807 70.5 22H68H65.5ZM70.5 2.5C70.5 1.11929 69.3807 0 68 0C66.6193 0 65.5 1.11929 65.5 2.5H68H70.5ZM65.5 36C65.5 37.3807 66.6193 38.5 68 38.5C69.3807 38.5 70.5 37.3807 70.5 36H68H65.5ZM70.5 31.5C70.5 30.1193 69.3807 29 68 29C66.6193 29 65.5 30.1193 65.5 31.5H68H70.5ZM124.5 68.5C123.119 68.5 122 69.6193 122 71C122 72.3807 123.119 73.5 124.5 73.5V71V68.5ZM133.5 73.5C134.881 73.5 136 72.3807 136 71C136 69.6193 134.881 68.5 133.5 68.5V71V73.5ZM30.3146 39.2141C30.9851 40.4211 32.5071 40.8559 33.7141 40.1854C34.9211 39.5149 35.3559 37.9929 34.6854 36.7859L32.5 38L30.3146 39.2141ZM27.1854 23.2859C26.5149 22.0789 24.9929 21.6441 23.7859 22.3146C22.5789 22.9851 22.1441 24.5071 22.8146 25.7141L25 24.5L27.1854 23.2859ZM101.5 46L99.3943 47.3476L115.394 72.3476L117.5 71L119.606 69.6524L103.606 44.6524L101.5 46ZM117.5 71L115.64 69.3295L67.1401 123.329L69 125L70.8599 126.671L119.36 72.6705L117.5 71ZM69 125L70.8599 123.329L22.3599 69.3295L20.5 71L18.6401 72.6705L67.1401 126.671L69 125ZM20.5 71L22.5865 72.3771L39.0865 47.3771L37 46L34.9135 44.6229L18.4135 69.6229L20.5 71ZM20.5 71V73.5H51.5V71V68.5H20.5V71ZM37 46L34.8374 47.2543L49.3374 72.2543L51.5 71L53.6626 69.7457L39.1626 44.7457L37 46ZM37 46V48.5H68V46V43.5H37V46ZM68 46V48.5H101.5V46V43.5H68V46ZM51.5 71L53.5865 72.3771L70.0865 47.3771L68 46L65.9135 44.6229L49.4135 69.6229L51.5 71ZM51.5 71V73.5H85V71V68.5H51.5V71ZM85 71V73.5H117.5V71V68.5H85V71ZM68 46L65.9327 47.4058L82.9327 72.4058L85 71L87.0673 69.5942L70.0673 44.5942L68 46ZM85 71L87.0865 72.3771L103.587 47.3771L101.5 46L99.4135 44.6229L82.9135 69.6229L85 71ZM85 71L82.603 70.2898L66.603 124.29L69 125L71.397 125.71L87.397 71.7102L85 71ZM69 125L71.3782 124.229L53.8782 70.2293L51.5 71L49.1218 71.7707L66.6218 125.771L69 125ZM3 71.5V74H12V71.5V69H3V71.5ZM106 38L108.151 39.2745L116.151 25.7745L114 24.5L111.849 23.2255L103.849 36.7255L106 38ZM68 22H70.5V2.5H68H65.5V22H68ZM68 36H70.5V31.5H68H65.5V36H68ZM124.5 71V73.5H133.5V71V68.5H124.5V71ZM32.5 38L34.6854 36.7859L27.1854 23.2859L25 24.5L22.8146 25.7141L30.3146 39.2141L32.5 38Z" fill="black"/>
</svg>
