<svg width="220" height="217" viewBox="0 0 220 217" fill="none" xmlns="http://www.w3.org/2000/svg">
<g id="expatriados">
<path d="M94 5.32864C100.162 4.45706 105.163 4 112 4C117.211 4 123.708 4.28267 128.5 4.82745C151.614 7.45537 169.869 16.1791 183.5 28.6607C176.251 37.3231 167.411 44.4017 157.512 49.6898C163.813 67.7228 167.107 88.224 167.43 108.5H215.115C214.304 136.494 201.571 163.173 182.155 182.5C163.777 200.793 137.414 212.485 111.5 212.485C104.12 212.376 97.1184 211.661 90.5 210.406C68.8581 206.303 51.3109 196.431 38 183.106C18.2336 163.32 7.80899 135.922 7.19039 108.5C6.54299 79.8022 16.6355 51.0792 38 31.0296C51.8684 18.0147 70.4866 8.6546 94 5.32864Z" fill="white"/>
<path d="M112 4V50.5M112 4C105.163 4 100.162 4.45706 94 5.32864M112 4C117.211 4 123.708 4.28267 128.5 4.82745M111.5 212.485C137.414 212.485 163.777 200.793 182.155 182.5M111.5 212.485C112.162 212.495 110.831 212.485 111.5 212.485ZM111.5 212.485V107M111.5 212.485C104.12 212.376 97.1184 211.661 90.5 210.406M192 42.5C208.92 63.325 215.758 86.3252 215.115 108.5M38 31.0296C51.8684 18.0147 70.4866 8.6546 94 5.32864M38 31.0296C-3.77882 70.2372 -2.45281 142.613 38 183.106M38 31.0296C56.6699 47.7634 77.7108 57.0183 98.3845 59.857M112 50.5C107.117 50.0659 100.452 51.6387 98.3845 59.857M112 50.5C116.115 50.6751 122.253 51.4939 125.414 56M94 5.32864C67.27 30.1647 60.8955 51.2957 55.5 94M128.5 4.82745C151.614 7.45537 169.869 16.1791 183.5 28.6607C169.401 45.5092 149.281 56.3661 127.057 59.7105M128.5 4.82745C179.5 46 180 174 132.5 207V183.5M215.115 108.5C214.304 136.494 201.571 163.173 182.155 182.5M215.115 108.5H149.5M4 108.5H55.5M182.155 182.5C167.521 170.023 152.168 161.694 136.5 157.433M38 183.106C53.6958 170.381 69.9493 161.793 86.3192 157.433M38 183.106C51.3109 196.431 68.8581 206.303 90.5 210.406M74 108.5H55.5M86.3192 202C67.0527 178.812 56.4365 165.471 55.5 108.5M100 79.5C98.5478 74.3366 97.8645 70.0492 97.7606 66.5M123 79.5C127.254 70.2831 128.094 63.9984 127.057 59.7105M97.5 83.191C95.0781 83.2609 92.8706 83.3614 91 83.5C80.2 84.3 77.8333 90.8333 78 94V141.5M97.5 83.191L111.5 107M97.5 83.191C106.469 82.9324 118.379 83.0951 127 83.3098M111.5 107L127 83.3098M127 83.3098C129.491 83.3718 131.708 83.4382 133.5 83.5C137.5 83.6667 145.5 86.6 145.5 97C145.5 105.696 145.5 127.114 145.5 141.5M90.5 108.5V129M90.5 210.406V129M132.5 108.5V129M132.5 173V129M145.5 141.5C145.5 144.32 145.5 146.869 145.5 149C145.5 151.131 135.7 166.721 132.5 129M145.5 141.5H78M78 141.5V149C78 164.5 90.5 160 90.5 129M127.057 59.7105C126.705 58.2561 126.138 57.0315 125.414 56M98.3845 59.857C97.9173 61.7142 97.6847 63.9106 97.7606 66.5M97.7606 66.5C110.669 65.6612 117.145 64.0083 125.414 56" stroke="black" stroke-width="8" stroke-linecap="round"/>
</g>
</svg>
