<svg width="263" height="261" viewBox="0 0 263 261" fill="none" xmlns="http://www.w3.org/2000/svg">
<g id="intercambio">
<path d="M186.504 35.4998C234.504 7.99977 290.004 67.9999 240.004 114.5C231.647 119.18 223.137 121.387 215 121.601C215 134.924 212.988 146.919 209.373 157.5C207.832 162.011 205.999 166.266 203.906 170.257C188.992 198.698 160.879 213.769 131 213.116C116.479 212.799 101.542 208.769 87.5 200.755C82.7895 206.953 76.2243 212.962 67.5032 218.5C70.3355 224.667 91.5 240.5 131 241.5V227.5L154 241.5L131 255V241.5C91.5 240.5 70.3355 224.667 67.5032 218.5C5.0007 235.5 -13.4999 170 20.0031 137C28.699 131.174 37.7656 128.4 46.5 128.021C47.7649 118.992 49.8101 110.815 52.5042 103.447C54.4113 98.2318 56.6436 93.4213 59.1545 88.9999C75.4104 60.3757 103.346 48.06 130.334 47.7322C130.555 47.6397 130.777 47.5622 131 47.5C131.133 47.5724 131.266 47.6476 131.398 47.7254C145.196 47.7187 158.702 50.8365 170.224 56.5C173.583 49.4143 178.892 42.3071 186.504 35.4998C177.837 29.8332 153.604 18.3 132.004 19.5V33.5L107.504 19.5L132.004 5.5V19.5C153.604 18.3 177.837 29.8332 186.504 35.4998Z" fill="white"/>
<path d="M208.004 210C224.004 196 249.004 161 240.004 114.5M240.004 114.5C290.004 67.9999 234.504 7.99977 186.504 35.4998M240.004 114.5C231.647 119.18 223.137 121.387 215 121.601M186.504 35.4998C177.837 29.8332 153.604 18.3 132.004 19.5M186.504 35.4998C178.892 42.3071 173.583 49.4143 170.224 56.5M240.004 70.3749L249.004 65.9999L213.004 49.4999L177.504 65.9999L183.004 68.7112M240.004 70.3749L213.004 83.4999L183.004 68.7112M240.004 70.3749V88.9999C234.337 88.4999 221.004 90.4999 213.004 102.5C207.566 96.4999 193.953 85.3999 183.004 88.9999V68.7112M132.004 19.5V5.5L107.504 19.5L132.004 33.5V19.5ZM52.5042 52C32.5038 68.7112 17.2031 106.6 20.0031 137M20.0031 137C-13.4999 170 5.0007 235.5 67.5032 218.5M20.0031 137C28.699 131.174 37.7656 128.4 46.5 128.021M67.5032 218.5C70.3355 224.667 91.5 240.5 131 241.5M67.5032 218.5C76.2243 212.962 82.7895 206.953 87.5 200.755M131 241.5V227.5L154 241.5L131 255V241.5ZM21 170.257L49 183.5L77.5 169.836M21 170.257L12 166L49 149.5L85.5 166L77.5 169.836M21 170.257V188.5C27.5 188.333 42.2 190.7 49 201.5C52.3333 197.167 61.5 188.5 77.5 188.5V169.836M87.5 200.755C101.542 208.769 116.479 212.799 131 213.116M87.5 200.755C93.2308 193.215 96.2166 185.394 97 177.798M215 121.601C201.56 121.955 189.141 116.869 180.12 108.5M215 121.601C215 134.924 212.988 146.919 209.373 157.5M131 213.116C157 213.684 160.5 63.5 131 47.5C109.5 53.5 97.5 201.5 131 213.116ZM131 213.116C160.879 213.769 188.992 198.698 203.906 170.257M170.224 56.5C135.891 39.6242 83.9432 45.3508 59.1545 88.9999M170.224 56.5C165.826 65.7775 164.769 75.018 166.258 83.4999M46.5 128.021C47.7649 118.992 49.8101 110.815 52.5042 103.447M46.5 128.021C64.7251 127.231 81.5038 136.874 90.4499 151M59.1545 88.9999C94.0397 82.0737 119.834 82.4847 166.258 83.4999M59.1545 88.9999C56.6436 93.4213 54.4113 98.2318 52.5042 103.447M166.258 83.4999C167.957 93.1788 172.972 101.87 180.12 108.5M52.5042 103.447C82 112 162.5 114.5 180.12 108.5M90.4499 151C117.867 147.175 175 146.5 209.373 157.5M90.4499 151C95.4411 158.881 97.9942 168.159 97 177.798M209.373 157.5C207.832 162.011 205.999 166.266 203.906 170.257M203.906 170.257C190.238 174.403 202.737 177.591 97 177.798M205.504 65.9999C207.809 61.6446 213.879 57.9304 219.504 65.9999C214.445 70.8083 211.418 71.3044 205.504 65.9999ZM41.5 166C45.9879 160.871 52.5336 160.089 57.5 166C53.0457 172.994 46.4064 172.477 41.5 166Z" stroke="black" stroke-width="6" stroke-linecap="round"/>
</g>
</svg>
