<svg width="161" height="146" viewBox="0 0 161 146" fill="none" xmlns="http://www.w3.org/2000/svg">
<path d="M67 116.5L62.501 107.5C17.2488 83.5171 35.4996 24.5002 79.4985 24.5002C123.497 24.5002 147.5 78.5 99.501 107.5L94 116.5M67 116.5C57.1822 120.325 61.5 125 64 129M67 116.5C68.5313 116.13 70.7987 115.714 73.5 115.406M64 129C61.1667 132.833 57.5 140.9 65.5 142.5C73.5 144.1 89.5 143.167 96.5 142.5C99.3333 140.5 103.2 134.6 96 129M64 129H96M96 129C99.5 125.833 104 119.3 94 116.5M94 116.5C91.5819 115.823 89.0371 115.405 86.5 115.177M86.5 115.177V86.5L101 71.5M86.5 115.177C81.869 114.761 77.2633 114.978 73.5 115.406M73.5 115.406V87.5L58.5 72M129.5 107.5L147 116M142 67H161M128 34L147.5 27M80 15.5V0M31 34.5L13 26M17.5 67.5H0M30 107.5L12.5 116.5" stroke="black" stroke-width="5"/>
</svg>
