<svg width="144" height="138" viewBox="0 0 144 138" fill="none" xmlns="http://www.w3.org/2000/svg">
<g id="mao">
<path id="Vector 80" d="M85 31.5C67.0044 22.5001 67.3862 4 85.8818 4C104.886 4 99.5044 23.5002 85 31.5ZM85 31.5C85 31.5 104.886 27.0001 104.886 52.4999H64.1197C62.1218 26 85 31.5 85 31.5Z" stroke="black" stroke-width="8" stroke-linecap="round"/>
<path id="Vector 79" d="M47 123.127C40.5983 126.197 38.4162 131.024 31.5 132.627L6 83.1271C13.0405 78.2264 20.3472 87.1555 27.5 78.6271M47 123.127C67.5517 113.273 105 116.627 105 116.627C121.666 100.768 151.932 74.7077 133 68.1267C123.085 64.6802 102.5 93 105 90.1267M47 123.127L27.5 78.6271M105 90.1267C116.5 69.1267 74 75.6267 74 75.6267C54 61.6267 40.5 63.1268 27.5 78.6271M105 90.1267L74 91.6267" stroke="black" stroke-width="8" stroke-linecap="round"/>
</g>
</svg>
