<svg width="131" height="121" viewBox="0 0 131 121" fill="none" xmlns="http://www.w3.org/2000/svg">
<path d="M52 90.2251C35.1481 86.5582 19.0766 76.4909 6 61.0002C20.0579 44.8239 35.8959 35.3971 52 32.1198M52 90.2251C38.1667 81.73 18.8 58.2157 52 32.1198M52 90.2251C61.3888 92.2681 71.0197 92.3245 80.5099 90.2251M52 32.1198C60.7364 30.3419 69.551 30.3738 78.2022 32.1198M80.5099 90.2251C96.3211 86.7275 111.742 77.2464 125 61.0002C111.199 45.3726 95.009 35.5117 78.2022 32.1198M80.5099 90.2251C93 82 109.564 58.2157 78.2022 32.1198M36 12.5L43.5 23.5M65 4V17M104 12.5L97.5 23.5M105.5 109L97.5 97M66.5 104.5V117M45 101L36 112M47.5 71C47.5 71 56.381 55.592 57.5 61.0002C60.5 75.5 66.5 71 66.5 71C76 63.5 82 51.5 82 51.5M82 51.5L65 53M82 51.5L85 69" stroke="black" stroke-width="8" stroke-linecap="round"/>
</svg>
